grf
version=1
nRows=6
nColumns=37
inDegrees=no
endheader
time	ground_force_1_vx	ground_force_1_vy	ground_force_1_vz	ground_force_1_px	ground_force_1_py	ground_force_1_pz	ground_moment_1_mx	ground_moment_1_my	ground_moment_1_mz	ground_force_2_vx	ground_force_2_vy	ground_force_2_vz	ground_force_2_px	ground_force_2_py	ground_force_2_pz	ground_moment_2_mx	ground_moment_2_my	ground_moment_2_mz	ground_force_3_vx	ground_force_3_vy	ground_force_3_vz	ground_force_3_px	ground_force_3_py	ground_force_3_pz	ground_moment_3_mx	ground_moment_3_my	ground_moment_3_mz	ground_force_4_vx	ground_force_4_vy	ground_force_4_vz	ground_force_4_px	ground_force_4_py	ground_force_4_pz	ground_moment_4_mx	ground_moment_4_my	ground_moment_4_mz
      6.08000000	      0.00000000	     -0.00000000	      0.00000000	      0.00000000	      0.00000000	      0.00000000	      0.00000000	      0.00000000	      0.00000000	     -3.58002043	     29.66883469	   -548.44421387	   -297.16616161	  -1000.07241565	      0.00000000	      0.00000000	      0.00000000	   1599.85833597	     29.24499039	    -32.26686352	   -599.65631104	   -318.86666137	   -745.49553865	      0.00000000	      0.00000000	     -0.00000000	  -3708.55024191	      0.00000000	     -0.00000000	      0.00000000	      0.00000000	      0.00000000	      0.00000000	      0.00000000	      0.00000000	      0.00000000
      6.09000000	      0.00000000	     -0.00000000	      0.00000000	      0.00000000	      0.00000000	      0.00000000	      0.00000000	      0.00000000	      0.00000000	     -9.33966541	     25.57353592	   -469.53881836	   -292.45340055	   -999.82353082	      0.00000000	      0.00000000	      0.00000000	   1298.68145511	     12.84321389	    -23.51215856	   -547.60296631	   -313.14112344	   -746.04107007	      0.00000000	      0.00000000	     -0.00000000	  -3864.37711053	      0.00000000	     -0.00000000	      0.00000000	      0.00000000	      0.00000000	      0.00000000	      0.00000000	      0.00000000	      0.00000000
      6.10000000	      0.00000000	     -0.00000000	      0.00000000	      0.00000000	      0.00000000	      0.00000000	      0.00000000	      0.00000000	      0.00000000	    -15.00999546	     20.23759842	   -385.28915405	   -286.94264965	   -999.06290172	      0.00000000	      0.00000000	      0.00000000	    817.21735539	      6.50292409	    -25.88581524	   -492.22845459	   -307.32948105	   -746.78019337	      0.00000000	      0.00000000	     -0.00000000	  -3484.84370886	      0.00000000	     -0.00000000	      0.00000000	      0.00000000	      0.00000000	      0.00000000	      0.00000000	      0.00000000	      0.00000000
      6.11000000	      0.00000000	     -0.00000000	      0.00000000	      0.00000000	      0.00000000	      0.00000000	      0.00000000	      0.00000000	      0.00000000	    -17.16744423	     14.07145405	   -318.25906372	   -281.68712247	   -999.77568920	      0.00000000	      0.00000000	      0.00000000	    823.21134344	      1.62406147	    -38.08038726	   -462.73324585	   -302.98488722	   -742.93841505	      0.00000000	      0.00000000	     -0.00000000	  -3006.03064569	      0.00000000	     -0.00000000	      0.00000000	      0.00000000	      0.00000000	      0.00000000	      0.00000000	      0.00000000	      0.00000000
      6.12000000	      0.00000000	     -0.00000000	      0.00000000	      0.00000000	      0.00000000	      0.00000000	      0.00000000	      0.00000000	      0.00000000	    -16.56006241	      8.75179291	   -268.77374268	   -278.30618071	   -998.49992063	      0.00000000	      0.00000000	      0.00000000	    718.79304476	      0.82585570	    -50.81369026	   -444.71109009	   -301.19643962	   -739.39698086	      0.00000000	      0.00000000	     -0.00000000	  -2490.53906672	      0.00000000	     -0.00000000	      0.00000000	      0.00000000	      0.00000000	      0.00000000	      0.00000000	      0.00000000	      0.00000000
      6.13000000	      0.00000000	     -0.00000000	      0.00000000	      0.00000000	      0.00000000	      0.00000000	      0.00000000	      0.00000000	      0.00000000	    -13.33152008	      5.99996376	   -235.99287415	   -276.58312214	   -997.27599858	      0.00000000	      0.00000000	      0.00000000	    775.72427385	      1.75768959	    -58.70102707	   -434.84643555	   -299.74836307	   -737.06385776	      0.00000000	      0.00000000	     -0.00000000	  -2122.00947812	      0.00000000	     -0.00000000	      0.00000000	      0.00000000	      0.00000000	      0.00000000	      0.00000000	      0.00000000	      0.00000000
